{"title":"Taylor.Swift - We Are Never Ever Getting Back Together (MTV EMA","uid":7823063,"size":806656488,"categoryP":"video","categoryS":"other","magnet":"?xt=urn:btih:bc30cb0ba53d451da113707701a94f340e671942&amp;dn=Taylor.Swift+-+We+Are+Never+Ever+Getting+Back+Together+%28MTV+EMA+&amp;tr=udp%3A%2F%2Ftracker.openbittorrent.com%3A80&amp;tr=udp%3A%2F%2Fopen.demonii.com%3A1337&amp;tr=udp%3A%2F%2Ftracker.coppersurfer.tk%3A6969&amp;tr=udp%3A%2F%2Fexodus.desync.com%3A6969","seeders":2,"leechers":1,"uploader":"Laci4465","files":1,"time":1352869603,"description":"Format                           : MPEG-TS\nFile size                        : 769 MiB\nDuration                         : 3mn 55s\nOverall bit rate mode            : Variable\nOverall bit rate                 : 27.4 Mbps\n\nVideo\nID                               : 308 (0x134)\nMenu ID                          : 1 (0x1)\nFormat                           : MPEG Video\nFormat version                   : Version 2\nFormat profile                   : Main@High\nFormat settings, BVOP            : Yes\nFormat settings, Matrix          : Default\nCodec ID                         : 2\nDuration                         : 3mn 54s\nBit rate mode                    : Variable\nBit rate                         : 25.8 Mbps\nMaximum bit rate                 : 27.1 Mbps\nWidth                            : 1 920 pixels\nHeight                           : 1 080 pixels\nDisplay aspect ratio             : 16:9\nFrame rate                       : 25.000 fps\nColor space                      : YUV\nChroma subsampling               : 4:2:0\nBit depth                        : 8 bits\nScan type                        : Interlaced\nScan order                       : Top Field First\nCompression mode                 : Lossy\nBits/(Pixel*Frame)               : 0.498\nStream size                      : 720 MiB (94%)\n\nAudio\nID                               : 256 (0x100)\nMenu ID                          : 1 (0x1)\nFormat                           : MPEG Audio\nFormat version                   : Version 1\nFormat profile                   : Layer 2\nCodec ID                         : 4\nDuration                         : 3mn 55s\nBit rate mode                    : Constant\nBit rate                         : 256 Kbps\nChannel(s)                       : 2 channels\nSampling rate                    : 48.0 KHz\nCompression mode                 : Lossy\nDelay relative to video          : -282ms\nStream size                      : 7.18 MiB (1%)\nLanguage                         : English\n\nMenu\nID                               : 32 (0x20)\nMenu ID                          : 1 (0x1)\nDuration                         : 3mn 55s\nList                             : 256 (0x100) (MPEG Audio, English) / 308 (0x134) (MPEG Video)\nLanguage                         : English\nMaximum bit rate                 : 150000000\n","torrent":{"xt":"urn:btih:bc30cb0ba53d451da113707701a94f340e671942","amp;dn":"Taylor.Swift+-+We+Are+Never+Ever+Getting+Back+Together+%28MTV+EMA+","amp;tr":["udp%3A%2F%2Ftracker.openbittorrent.com%3A80","udp%3A%2F%2Fopen.demonii.com%3A1337","udp%3A%2F%2Ftracker.coppersurfer.tk%3A6969","udp%3A%2F%2Fexodus.desync.com%3A6969"],"infoHash":"bc30cb0ba53d451da113707701a94f340e671942","infoHashBuffer":{"type":"Buffer","data":[188,48,203,11,165,61,69,29,161,19,112,119,1,169,79,52,14,103,25,66]},"announce":[],"urlList":[]}}